<svg id="Layer_1" data-name="Layer 1" xmlns="http://www.w3.org/2000/svg" viewBox="0 0 478 118"><defs><style>.cls-1{fill:#2483c5;}.cls-2{fill:#fff;}</style></defs><rect class="cls-1" x="-0.18" y="-0.3" width="478.14" height="118.3"/><rect class="cls-2" x="21.78" y="82.41" width="15.27" height="1.17"/><polygon class="cls-2" points="21.78 80.49 21.78 78.67 36.93 78.67 36.99 80.49 21.78 80.49"/><polygon class="cls-2" points="21.78 76.72 21.78 74.22 36.82 74.22 36.87 76.72 21.78 76.72"/><polygon class="cls-2" points="21.78 72.26 21.78 68.64 36.66 68.64 36.74 72.26 21.78 72.26"/><polygon class="cls-2" points="21.78 66.74 21.78 61.14 65.75 61.14 65.75 66.74 39.59 66.74 36.45 61.57 36.59 66.74 21.78 66.74"/><polygon class="cls-2" points="21.78 59.2 21.78 52.27 47.58 52.27 51.1 58.25 51.13 52.27 65.75 52.27 65.75 59.2 21.78 59.2"/><polygon class="cls-2" points="21.78 50.33 21.78 37.03 38.63 37.03 46.43 50.33 21.78 50.33"/><polygon class="cls-2" points="51.15 50.33 51.21 37.03 65.75 37.03 65.75 50.33 51.15 50.33"/><polygon class="cls-2" points="65.75 68.64 65.75 72.26 43.01 72.26 40.8 68.64 65.75 68.64"/><polygon class="cls-2" points="65.75 74.22 65.75 76.72 45.69 76.72 44.17 74.22 65.75 74.22"/><polygon class="cls-2" points="65.75 78.67 65.75 80.49 47.98 80.49 46.88 78.67 65.75 78.67"/><polygon class="cls-2" points="65.75 82.42 65.75 83.59 49.63 83.59 49.16 82.42 65.75 82.42"/><rect class="cls-2" x="69.92" y="82.41" width="15.26" height="1.17"/><rect class="cls-2" x="69.92" y="78.67" width="15.26" height="1.82"/><rect class="cls-2" x="69.92" y="74.22" width="15.26" height="2.5"/><rect class="cls-2" x="69.92" y="68.64" width="15.26" height="3.61"/><rect class="cls-2" x="69.92" y="61.14" width="15.26" height="5.6"/><rect class="cls-2" x="69.92" y="52.27" width="15.26" height="6.93"/><rect class="cls-2" x="69.92" y="37.03" width="15.26" height="13.29"/><path class="cls-2" d="M111.42,36h8.1V50.33H90A23.48,23.48,0,0,1,111.42,36"/><path class="cls-2" d="M106.42,52.27a9.55,9.55,0,0,0-3,6.93H88a25.67,25.67,0,0,1,1.28-6.93Z"/><path class="cls-2" d="M103.51,61.14a9.61,9.61,0,0,0,3,5.6H88.91a24.52,24.52,0,0,1-.87-5.6Z"/><path class="cls-2" d="M119.52,68.64v3.62H91.2a23,23,0,0,1-1.68-3.62Z"/><path class="cls-2" d="M119.52,74.22v2.5H94.44a24.16,24.16,0,0,1-2-2.5Z"/><path class="cls-2" d="M119.52,78.67v1.82H98.86a27.15,27.15,0,0,1-2.41-1.82Z"/><path class="cls-2" d="M119.52,82.41v1H105.7s-.46.18-3.2-1Z"/><polygon class="cls-2" points="130.02 63.25 134.15 63.25 141.63 77.48 141.63 63.25 145.3 63.25 145.3 83.66 141.36 83.66 133.69 69.18 133.69 83.66 130.02 83.66 130.02 63.25"/><path class="cls-2" d="M154,74.48a5.14,5.14,0,0,0,1.45-.35A1.17,1.17,0,0,0,156.2,73a1.35,1.35,0,0,0-.61-1.28,3.51,3.51,0,0,0-1.77-.35,2.22,2.22,0,0,0-1.85.69,2.89,2.89,0,0,0-.51,1.38h-3.52a6.17,6.17,0,0,1,1-3.25q1.46-2,5-2a8.27,8.27,0,0,1,4.08,1c1.19.65,1.78,1.89,1.78,3.71v6.93c0,.47,0,1.06,0,1.74a2.35,2.35,0,0,0,.22,1.05,1.3,1.3,0,0,0,.54.46v.58h-4a5.26,5.26,0,0,1-.23-.86c0-.27-.08-.57-.1-.91a7.9,7.9,0,0,1-1.75,1.51,5,5,0,0,1-2.68.73A4.41,4.41,0,0,1,148.73,83a5.05,5.05,0,0,1,.76-7.34,8.34,8.34,0,0,1,3.22-1Zm2.22,1.84a3.69,3.69,0,0,1-.7.38,5.28,5.28,0,0,1-1,.27l-.83.17a5,5,0,0,0-1.68.54,1.84,1.84,0,0,0-.86,1.67,1.8,1.8,0,0,0,.53,1.46,1.86,1.86,0,0,0,1.28.45,3.58,3.58,0,0,0,2.2-.74,3.28,3.28,0,0,0,1-2.73Z"/><path class="cls-2" d="M161.31,71.51V68.7h1.94V64.49h3.61V68.7h2.26v2.81h-2.26v8a2,2,0,0,0,.21,1.16,2.27,2.27,0,0,0,1.33.23h.35l.37,0v3l-1.73.07c-1.72.06-2.9-.26-3.53-1a3,3,0,0,1-.61-2.09v-9.3Z"/><path class="cls-2" d="M175.39,66.76H171.7V63.12h3.69Zm-3.69,1.81h3.69V83.66H171.7Z"/><path class="cls-2" d="M189.83,81.81a7.26,7.26,0,0,1-10.71,0,10,10,0,0,1,0-11.33,7.17,7.17,0,0,1,10.71,0,10,10,0,0,1,0,11.33m-2.91-2.18a7.61,7.61,0,0,0,0-7,3.09,3.09,0,0,0-4.92,0,7.53,7.53,0,0,0,0,7,3.07,3.07,0,0,0,4.92,0"/><path class="cls-2" d="M205.18,69.43a5.23,5.23,0,0,1,1.37,4.06V83.66h-3.74V74.48a4.65,4.65,0,0,0-.28-1.83,2,2,0,0,0-2-1.16,2.52,2.52,0,0,0-2.52,1.7,6.27,6.27,0,0,0-.36,2.3v8.17H194V68.59h3.53V70.8a6.69,6.69,0,0,1,1.32-1.68,4.34,4.34,0,0,1,2.84-.91,5,5,0,0,1,3.52,1.22"/><path class="cls-2" d="M215.2,74.48a5.14,5.14,0,0,0,1.45-.35,1.17,1.17,0,0,0,.79-1.12,1.36,1.36,0,0,0-.6-1.28,3.56,3.56,0,0,0-1.77-.35,2.24,2.24,0,0,0-1.86.69,3,3,0,0,0-.52,1.38h-3.51a6.08,6.08,0,0,1,1-3.25q1.44-2,5-2a8.27,8.27,0,0,1,4.08,1c1.19.65,1.79,1.89,1.79,3.71v6.93c0,.47,0,1.06,0,1.74a2.35,2.35,0,0,0,.22,1.05,1.3,1.3,0,0,0,.54.46v.58h-4a5.26,5.26,0,0,1-.23-.86c0-.27-.07-.57-.1-.91a7.9,7.9,0,0,1-1.75,1.51,5,5,0,0,1-2.67.73A4.42,4.42,0,0,1,210,83a5.05,5.05,0,0,1,.76-7.34,8.34,8.34,0,0,1,3.22-1Zm2.22,1.84a3.69,3.69,0,0,1-.7.38,5.28,5.28,0,0,1-1,.27l-.83.17a4.9,4.9,0,0,0-1.67.54,1.82,1.82,0,0,0-.86,1.67,1.8,1.8,0,0,0,.52,1.46,1.86,1.86,0,0,0,1.28.45,3.58,3.58,0,0,0,2.2-.74,3.28,3.28,0,0,0,1-2.73Z"/><rect class="cls-2" x="224.05" y="63.25" width="3.64" height="20.41"/><rect class="cls-2" x="235.56" y="63.5" width="3.91" height="20.41"/><path class="cls-2" d="M253.84,69.68a5.24,5.24,0,0,1,1.37,4.07V83.91h-3.74V74.73a4.66,4.66,0,0,0-.29-1.83,2,2,0,0,0-2-1.16,2.52,2.52,0,0,0-2.53,1.7,6.51,6.51,0,0,0-.35,2.3v8.17h-3.65V68.85h3.53v2.2a6.65,6.65,0,0,1,1.33-1.68,4.33,4.33,0,0,1,2.83-.91,5.12,5.12,0,0,1,3.53,1.22"/><path class="cls-2" d="M264.1,63.31l.77.06v3.22c-.21,0-.55,0-1-.07a1.16,1.16,0,0,0-1,.35,1.36,1.36,0,0,0-.27.81V69H265v2.79h-2.39V83.91H259V71.74H256.9V69h2V68a5.45,5.45,0,0,1,.75-3.34c.53-.91,1.8-1.36,3.82-1.36l.63,0"/><path class="cls-2" d="M278.41,82.07a7.26,7.26,0,0,1-10.71,0,10,10,0,0,1,0-11.34,7.17,7.17,0,0,1,10.71,0,10,10,0,0,1,0,11.34m-2.91-2.19a7.61,7.61,0,0,0,0-7,3.09,3.09,0,0,0-4.92,0,6,6,0,0,0-.86,3.5,6,6,0,0,0,.86,3.49,3.06,3.06,0,0,0,4.92,0"/><path class="cls-2" d="M290.27,68.46a1.67,1.67,0,0,0,.31,0v4l-.62-.06h-.43A3,3,0,0,0,286.58,74a6.51,6.51,0,0,0-.42,2.69v7.21h-3.67V68.82H286v2.63a8.6,8.6,0,0,1,1.47-2.06,3.81,3.81,0,0,1,2.67-.93h.17"/><path class="cls-2" d="M309.84,68.87a4.12,4.12,0,0,1,1.63,1.36,4.59,4.59,0,0,1,.79,1.94,15.16,15.16,0,0,1,.13,2.23l0,9.51h-3.74V74.3a3.39,3.39,0,0,0-.25-1.41,1.79,1.79,0,0,0-1.79-1,2.08,2.08,0,0,0-2.08,1.36,4.43,4.43,0,0,0-.3,1.73v9h-3.67v-9a5.51,5.51,0,0,0-.25-2,1.77,1.77,0,0,0-1.8-1.09,2.1,2.1,0,0,0-2.1,1.09,4.49,4.49,0,0,0-.3,1.86v9.08h-3.69V68.85h3.54v2.2a6.14,6.14,0,0,1,1.28-1.68,4.15,4.15,0,0,1,2.75-.89,4.08,4.08,0,0,1,2.58.77,4.36,4.36,0,0,1,1.2,1.81,4.85,4.85,0,0,1,1.78-2,5,5,0,0,1,2.5-.63,4.69,4.69,0,0,1,1.82.39"/><path class="cls-2" d="M321,74.73a5.71,5.71,0,0,0,1.45-.34,1.2,1.2,0,0,0,.79-1.13,1.38,1.38,0,0,0-.61-1.28,3.62,3.62,0,0,0-1.77-.35,2.22,2.22,0,0,0-1.85.69,3,3,0,0,0-.52,1.39H315a6,6,0,0,1,1-3.26q1.44-2,5-2a8.27,8.27,0,0,1,4.08,1c1.19.66,1.78,1.89,1.78,3.71v6.93q0,.72,0,1.74a2.21,2.21,0,0,0,.22,1.05,1.21,1.21,0,0,0,.53.46v.58h-4a4.42,4.42,0,0,1-.23-.86c0-.27-.08-.57-.1-.91a7.9,7.9,0,0,1-1.75,1.51,5,5,0,0,1-2.68.73,4.39,4.39,0,0,1-3.14-1.17,4.31,4.31,0,0,1-1.24-3.31,4.37,4.37,0,0,1,2-4,8.19,8.19,0,0,1,3.21-1Zm2.22,1.84a3.45,3.45,0,0,1-.7.38,6.07,6.07,0,0,1-1,.28l-.83.16a5.29,5.29,0,0,0-1.68.54,2.16,2.16,0,0,0-.33,3.14,1.89,1.89,0,0,0,1.28.45,3.61,3.61,0,0,0,2.2-.75,3.28,3.28,0,0,0,1-2.73Z"/><path class="cls-2" d="M328.34,71.77V69h2V64.74h3.6V69h2.27v2.82h-2.27v8a1.88,1.88,0,0,0,.22,1.16c.14.15.59.23,1.33.23h.35l.37,0v3l-1.73.07c-1.72.07-2.9-.26-3.53-1a3,3,0,0,1-.61-2.09V71.77Z"/><path class="cls-2" d="M342.43,67h-3.7V63.37h3.7Zm-3.7,1.8h3.7V83.91h-3.7Z"/><path class="cls-2" d="M353.58,74.23a3.57,3.57,0,0,0-.52-1.52,2.15,2.15,0,0,0-1.91-.92,2.56,2.56,0,0,0-2.53,2,8.8,8.8,0,0,0-.36,2.78,8.11,8.11,0,0,0,.36,2.67,2.47,2.47,0,0,0,2.47,1.89,2.07,2.07,0,0,0,1.81-.75,4,4,0,0,0,.66-1.94h3.72a7,7,0,0,1-1.21,3.41A5.7,5.7,0,0,1,351,84.43,5.76,5.76,0,0,1,346,82.27a9.25,9.25,0,0,1-1.59-5.61,9.33,9.33,0,0,1,1.76-6,5.88,5.88,0,0,1,4.84-2.16,6.88,6.88,0,0,1,4.29,1.27q1.67,1.27,2,4.5Z"/><path class="cls-2" d="M362.37,79.09a2.76,2.76,0,0,0,.51,1.5,3.19,3.19,0,0,0,2.51.79,3.62,3.62,0,0,0,1.72-.35,1.11,1.11,0,0,0,.63-1,1.15,1.15,0,0,0-.51-1,19.48,19.48,0,0,0-3.81-1.19,7.72,7.72,0,0,1-3.35-1.59,3.59,3.59,0,0,1-1-2.71,4.89,4.89,0,0,1,1.52-3.6,5.82,5.82,0,0,1,4.27-1.5,7.29,7.29,0,0,1,4.26,1.13A4.92,4.92,0,0,1,371,73.41H367.4a2.06,2.06,0,0,0-2.45-2,2.76,2.76,0,0,0-1.7.4,1.16,1.16,0,0,0-.5.94,1,1,0,0,0,.53,1,23.12,23.12,0,0,0,3.81,1.09,6.73,6.73,0,0,1,3.26,1.67,4,4,0,0,1,1.08,2.84A4.77,4.77,0,0,1,369.88,83a6.88,6.88,0,0,1-4.77,1.42q-3.3,0-4.86-1.51a5.06,5.06,0,0,1-1.57-3.83Z"/><path class="cls-2" d="M378.3,65.56A7.44,7.44,0,0,1,384.09,63q4.71,0,6.88,3.38a7.75,7.75,0,0,1,1.29,3.81h-3.94a6.09,6.09,0,0,0-1-2.22,4.07,4.07,0,0,0-6.44.55,9.75,9.75,0,0,0-1.21,5.31A8.48,8.48,0,0,0,381,79a3.88,3.88,0,0,0,3.26,1.71,3.57,3.57,0,0,0,3.09-1.46,6.84,6.84,0,0,0,1-2.37h3.91a9.5,9.5,0,0,1-2.58,5.43,7.23,7.23,0,0,1-5.33,2.09A7.69,7.69,0,0,1,378,81.58q-2.3-2.83-2.3-7.78,0-5.34,2.62-8.24"/><path class="cls-2" d="M403.93,69.05a5.8,5.8,0,0,1,2.41,2.24,7.75,7.75,0,0,1,1.11,3.11,20.38,20.38,0,0,1,.12,3H397.42a3.73,3.73,0,0,0,1.46,3.19,3.45,3.45,0,0,0,2,.56,2.93,2.93,0,0,0,2-.69,3.28,3.28,0,0,0,.75-1h3.72A5.08,5.08,0,0,1,406,82.15a6.51,6.51,0,0,1-5.24,2.2,7.27,7.27,0,0,1-4.91-1.85q-2.13-1.86-2.13-6a8.59,8.59,0,0,1,1.92-6,6.44,6.44,0,0,1,5-2.1,7.42,7.42,0,0,1,3.28.71m-5.45,3.41a4.32,4.32,0,0,0-1,2.34h6.28a3.46,3.46,0,0,0-1-2.39,3,3,0,0,0-2.16-.81,2.76,2.76,0,0,0-2.18.86"/><path class="cls-2" d="M420.39,69.61a5.24,5.24,0,0,1,1.37,4.07V83.84H418V74.66a4.62,4.62,0,0,0-.29-1.83,2,2,0,0,0-2-1.16,2.51,2.51,0,0,0-2.52,1.7,6.27,6.27,0,0,0-.36,2.3v8.17h-3.64V68.77h3.53V71A6.47,6.47,0,0,1,414,69.3a4.36,4.36,0,0,1,2.84-.91,5.06,5.06,0,0,1,3.52,1.22"/><path class="cls-2" d="M423.45,71.7V68.88h1.95V64.67H429v4.21h2.27V71.7H429v8a2,2,0,0,0,.22,1.16,2.27,2.27,0,0,0,1.33.23h.35l.37,0v3l-1.73.07c-1.72.06-2.9-.26-3.53-1A3,3,0,0,1,425.4,81V71.7Z"/><path class="cls-2" d="M441.09,68.39a1.67,1.67,0,0,0,.31,0v4l-.61-.06h-.44a3,3,0,0,0-3,1.55,6.48,6.48,0,0,0-.42,2.69v7.21h-3.67V68.75h3.47v2.63a8.7,8.7,0,0,1,1.47-2.07,3.81,3.81,0,0,1,2.66-.92h.18"/><path class="cls-2" d="M452.36,69.05a5.78,5.78,0,0,1,2.4,2.24,7.75,7.75,0,0,1,1.11,3.11,20.38,20.38,0,0,1,.12,3H445.84a3.73,3.73,0,0,0,1.46,3.19,3.49,3.49,0,0,0,2,.56,2.93,2.93,0,0,0,2-.69,3.13,3.13,0,0,0,.75-1h3.72a5.08,5.08,0,0,1-1.35,2.73,6.49,6.49,0,0,1-5.24,2.2,7.27,7.27,0,0,1-4.91-1.85q-2.13-1.86-2.13-6a8.64,8.64,0,0,1,1.92-6,6.44,6.44,0,0,1,5-2.1,7.49,7.49,0,0,1,3.29.71m-5.46,3.41a4.32,4.32,0,0,0-1,2.34h6.28a3.46,3.46,0,0,0-1-2.39,3,3,0,0,0-2.16-.81,2.76,2.76,0,0,0-2.18.86"/><path class="cls-2" d="M177.81,37.4a18.05,18.05,0,0,0-2.19-4.92,8.35,8.35,0,0,0-6.08-3.59,3.15,3.15,0,0,0-.44,0,4.18,4.18,0,0,0-2.92,1.37,5.67,5.67,0,0,0-1.44,3.65,5.8,5.8,0,0,0,.61,2.93c.05.06.29.43.29.43l.13.19H130V41h5.09v4.67c0,.47-.24.75-.65.78a1.87,1.87,0,0,1-1.77-1.09l-.39-.79c-.15-.29-.29-.56-.47-1l-2.91,2a16,16,0,0,0,.92,1.78c.72,1.34,1.48,2.63,2.27,3.84,2.37,3.42,4,5.68,5,6.9l2.79-2.63a33.58,33.58,0,0,1-4.3-5.55l-.11-.17.18,0a4.54,4.54,0,0,0,2-.81A3.41,3.41,0,0,0,138.88,46V41H144V57.58h3.83V41h3.74v6.22a5.25,5.25,0,0,0,1.6,3.86,5.1,5.1,0,0,0,3.73,1.61,4.88,4.88,0,0,0,1.92-.41l.11,0,0,.11a8,8,0,0,0,3.55,4.11l.18.1-4.4,3,2.47,2,4.14-2.78,2.89,2,1.88-1.33-2.1-2.13.22-.05a6.29,6.29,0,0,0,2-.77,9.57,9.57,0,0,0,2.9-3l-3-2.29c-.9,1.83-2,2.79-3.44,2.86a3.54,3.54,0,0,1-2.73-1.23,4.18,4.18,0,0,1-1.27-3c0-1.43.53-2.15,1.56-2.15h4.69a1.78,1.78,0,0,0,1.75-1.82V41h4V57.58h3.85V41h6l0,0a8.06,8.06,0,0,1,.79,3.47c0,1.31-.71,2-2.12,2a4.49,4.49,0,0,1-1.53-.27,8.73,8.73,0,0,0,1.92,6,6.2,6.2,0,0,0,4.89,2.33,7.15,7.15,0,0,0,3.19-.58l.16-.09v3.78h3.82V41h2.65V37.49h-20ZM158.34,48.91a1.67,1.67,0,0,1-1.1.36H157c-1.29-.14-2.1-.79-2.1-1.69V44.12l3.49,4.72Zm8.25-4.55h-3.38a4.68,4.68,0,0,0-3.43,1.49l.06-.06c-.09.12-.23-.09-.23-.1L156,41h10.58Zm3.54-6.88a3.63,3.63,0,0,1-1.22-1.29,4.25,4.25,0,0,1-.47-2,1.74,1.74,0,0,1,.7-1.33,2.18,2.18,0,0,1,1.47-.45c1.55.07,2.76,1.73,3.57,5l0,.15Zm15.5,11.91a4.24,4.24,0,0,0,2.24-1.63l0-.07a1.64,1.64,0,0,0,.14-.22c.11-.21.19-.42.28-.64s.07-.22.1-.34a5.72,5.72,0,0,0,.21-1.59,17.16,17.16,0,0,0-.44-3.76V41h3.21v8.26a3,3,0,0,1-1.49,1.32,4.44,4.44,0,0,1-1,.4,3,3,0,0,1-.85.14,1.23,1.23,0,0,1-.27,0,3,3,0,0,1-.72-.18,2.65,2.65,0,0,1-1.14-.74,3,3,0,0,1-.21-.26.9.9,0,0,1-.14-.2l-.06-.09-.13-.2Z"/><path class="cls-2" d="M210.51,37.63h-7.65v3.29h4.47v4.75a1.93,1.93,0,0,1-.05.45.59.59,0,0,1-.64.44,1.32,1.32,0,0,1-.94-.77,12.2,12.2,0,0,1-.58-1.31l-2.61,2A58.41,58.41,0,0,0,206,52.34c1.45,2.24,2.45,3.63,3,4.37l.38.52,2.82-2.33A20.68,20.68,0,0,0,210.6,53c-.34-.37-.65-.71-1-1.1-.55-.79-1-1.42-1.38-1.9l-.2-.26.31-.09a3.27,3.27,0,0,0,1.93-1.41,3.48,3.48,0,0,0,.67-2.1V40.93h3.67v5.42l-2.68,0,1.6,3.11h1.08V55.9l-.15,0a4.51,4.51,0,0,0-1.55.82,3.77,3.77,0,0,0-1.38,3.09,4,4,0,0,0,1.25,3,4.33,4.33,0,0,0,3,1.27h.12a6.27,6.27,0,0,0,2.79-.77L217.34,61a2.73,2.73,0,0,1-1.33.52,1.17,1.17,0,0,1-1.28-1,1.66,1.66,0,0,1,1.66-1.53c1.33,0,2.28,1,3.48,2.39,0,0,0,0,1.33,1.92l2.89-1.82a38.11,38.11,0,0,0-3.16-3.78,7.15,7.15,0,0,0-2.49-1.53L218.3,56V40.93h14.34v7.53c0,.22-.15.61-1.24,1.82a4,4,0,0,1-2.77,1.59,1.17,1.17,0,0,1-1.29-1.32,3.58,3.58,0,0,1,.78-2.11c.69-1,.89-1,1-1l1.66,0V44.34h-9.21v3.21h3.29l-.22.34a5,5,0,0,0-.86,2.8A4.2,4.2,0,0,0,225,53.85a4.76,4.76,0,0,0,3.34,1.21,7.28,7.28,0,0,0,4-1.5l.31-.21v4.1h3.66V40.93h11.82V45.1h-7.87c-1.06,0-1.56.53-1.56,1.67,0,.32.3,1.09,1.72,2.94S242.57,52,242.84,52h.08a1,1,0,0,0,1-.71,2.2,2.2,0,0,0,.2-.88V48.53h4v9h3.68V40.93h3.47V57.49H259V40.93h2.67V37.65h-51Z"/><path class="cls-2" d="M284.48,37.57A31.14,31.14,0,0,0,281.8,34c-2.58-2.86-5.05-4.31-7.32-4.31a6.3,6.3,0,0,0-4.54,1.6,5.69,5.69,0,0,0-1.68,4.23,8.37,8.37,0,0,0,.25,1.84c0,.06.12.27.06.27H266v3.29h2.52a.21.21,0,0,1,.2.22V52.32a.14.14,0,0,1,0,.07v5.09h3.64V41.16a.21.21,0,0,1,.2-.22h10.59a.21.21,0,0,1,.2.22V50.1c0,.24-.2.53-.64.94a3.85,3.85,0,0,1-2.18.67h-.11A2.31,2.31,0,0,1,278.9,51a2.28,2.28,0,0,1-.68-1.72,2.59,2.59,0,0,1,.6-1.74,2,2,0,0,1,1.52-.67,4,4,0,0,1,1.55.35l-.33-3.11a8.86,8.86,0,0,0-1.7-.3,4.79,4.79,0,0,0-3.62,1.55,5.92,5.92,0,0,0,.26,8.09,5.22,5.22,0,0,0,3.72,1.45h.22a7.87,7.87,0,0,0,2.65-.5c.07,0,.28-.2.28-.13v3.19H287V41.16a.21.21,0,0,1,.2-.22h15.51a.21.21,0,0,1,.2.22v2.17a.2.2,0,0,1-.2.21H292.36a2.2,2.2,0,0,0-1.62.73,2.36,2.36,0,0,0-.69,1.67,6.85,6.85,0,0,0,1.68,4c1.06,1.27,2,1.91,2.72,1.91h.1a4.22,4.22,0,0,0,1.12-.4,3.54,3.54,0,0,1,1.2-.41c.19,0,.61.08.61.78a2.47,2.47,0,0,1-1.11,2.06,2.64,2.64,0,0,1-1.17.66.29.29,0,0,1-.24-.11c-1.33-1.43-2.41-2.15-3.21-2.15a1.89,1.89,0,0,0-1.43.6,2.06,2.06,0,0,0-.56,1.47,2.57,2.57,0,0,0,1,2.16,3.82,3.82,0,0,0,2.27.79,2.17,2.17,0,0,0,.68,0h0a.16.16,0,0,1,.14.07c.35.39,2.5,2.71,2.91,3l2.55-2.76a10.57,10.57,0,0,1-2.42-1s1-.37,1-.37a3.79,3.79,0,0,0,1.7-1.23,5,5,0,0,0,1.24-3.53c0-2.08-.88-3.05-2.72-3.05a5.78,5.78,0,0,0-1.42.27,5.54,5.54,0,0,1-1.49.29,1.56,1.56,0,0,1-1.28-.78,2.39,2.39,0,0,1-.2-.93c0-.15.05-.5.61-.5h8.36a.21.21,0,0,1,.2.22v10.5h3.67V41.16a.21.21,0,0,1,.2-.22H310a.21.21,0,0,1,.2.22V53.67s0,0,0,.08v3.73h3.66V41.16a.21.21,0,0,1,.2-.22h11.08a.21.21,0,0,1,.2.22v3.73a.21.21,0,0,1-.2.22h-7.65c-1.07,0-1.57.53-1.57,1.67,0,.27.23,1,1.72,2.95S319.69,52,320,52h.06a1,1,0,0,0,1-.72,2,2,0,0,0,.21-.87V48.76a.21.21,0,0,1,.2-.22h3.61a.21.21,0,0,1,.2.22v4.92a.17.17,0,0,1,0,.07v3.73H329V41.16a.21.21,0,0,1,.2-.22h2.37V37.66h-46.9a.19.19,0,0,1-.16-.09m-4,0a.21.21,0,0,1-.17.1H272s-.05-.07-.07-.16a7.09,7.09,0,0,1-.23-1.65c0-1.93,1-2.91,2.76-2.91A6.37,6.37,0,0,1,279,35.27a10,10,0,0,1,1.49,2.07.22.22,0,0,1,0,.22"/><path class="cls-2" d="M336.62,37.74V41h5.89v8.88l-.06.08a2.66,2.66,0,0,1-2.26,1.15,1.81,1.81,0,0,1-1.45-.82,2.63,2.63,0,0,1-.5-1.73c.06-1.18.43-1.91,1.15-2.21a4.39,4.39,0,0,1,1.27-.14l-.5-3a5.42,5.42,0,0,0-4,1.49,5.58,5.58,0,0,0-1.23,3.92,5.6,5.6,0,0,0,1.48,4.06A4.73,4.73,0,0,0,340,54.28a5.27,5.27,0,0,0,2-.42l.51-.22v3.84H346V50.17l0-.18V48.33c0-.25.11-.46.77-1.13a2.27,2.27,0,0,1,1.57-.74,1.48,1.48,0,0,1,1.27.74,2.88,2.88,0,0,1,.41,1.52,5.48,5.48,0,0,1-2.2,4.38L350,55.44c.13-.11.35-.32.72-.7a10.79,10.79,0,0,0,1.76-2.45,7.83,7.83,0,0,0,.9-3.72A5.26,5.26,0,0,0,352,45a4.37,4.37,0,0,0-3.34-1.53,3.67,3.67,0,0,0-2.09.62l-.58.39V41h18.73v2.41l-4.67,0a4,4,0,0,0-3,1.35,4.3,4.3,0,0,0-1.27,3.13,6,6,0,0,0,2.89,5.45l.6.38-2.77,1.56,2,3,4.78-3.52.35,0,.63,0h.22l.75,1.4a4.25,4.25,0,0,1,.42,1.3l3.44,0a7.44,7.44,0,0,0-.75-1.85c-.32-.52-.64-1-1-1.56l-.18-.3.25-.24a3.14,3.14,0,0,0,1-2.41,2.53,2.53,0,0,0-.68-1.72,2,2,0,0,0-1.54-.73,2.15,2.15,0,0,0-1.89,1,3.62,3.62,0,0,0-.55,1.52,1.55,1.55,0,0,1,0,.21.45.45,0,0,0,0,.13l0,.32-.29,0a2.9,2.9,0,0,1-.66,0,4.14,4.14,0,0,1-1.88-.79,3.41,3.41,0,0,1-1.6-3c0-1.44.9-1.66,1.41-1.66h6.09a1.51,1.51,0,0,0,1.1-.5,1.62,1.62,0,0,0,.42-1.12V41h2.12V37.74H351.82l0-.05-6.62-8.5-2.47,2.06,5.95,6.24.26.25Z"/><rect class="cls-2" x="353.36" y="31.52" width="3.44" height="3.36"/></svg>